<?xml version="1.0" encoding="utf-8"?>
<!-- Generator: Adobe Illustrator 19.1.0, SVG Export Plug-In . SVG Version: 6.00 Build 0)  -->
<!DOCTYPE svg PUBLIC "-//W3C//DTD SVG 1.1//EN" "http://www.w3.org/Graphics/SVG/1.1/DTD/svg11.dtd">
<svg version="1.1" xmlns="http://www.w3.org/2000/svg" xmlns:xlink="http://www.w3.org/1999/xlink" x="0px" y="0px"
	 viewBox="-627 389 24 24" style="enable-background:new -627 389 24 24;" xml:space="preserve">
<style type="text/css">
	.st0{fill:#464442;}
	.st1{fill:#FFFFFF;}
</style>
<g id="Layer_2_1_">
</g>
<g id="Layer_1">
	<path class="st0" d="M-604.9,413h-20.1c-1.1,0-1.9-0.9-1.9-1.9v-20.1c0-1.1,0.9-1.9,1.9-1.9h20.1c1.1,0,1.9,0.9,1.9,1.9v20.1
		C-603,412.1-603.9,413-604.9,413z"/>
	<g id="Layer_2">
	</g>
	<g id="Layer_1_1_">
		<g>
			<path class="st1" d="M-615,391c5.5-0.1,10.1,4.6,10,10.3c-0.1,5.4-4.7,9.9-10.3,9.8c-5.4-0.2-9.9-4.7-9.8-10.3
				C-624.8,395.3-620.3,390.9-615,391z M-615,391.5c-5.2-0.1-9.4,4.2-9.5,9.3c-0.1,5.3,4.2,9.6,9.3,9.8c5.3,0.1,9.6-4.2,9.7-9.3
				C-605.4,395.8-609.8,391.5-615,391.5z"/>
			<path class="st1" d="M-617.2,406.3c-1.1-3.1-2.1-6.2-3.1-9.3c0.3,0,0.4-0.1,0.7-0.1c0.1,0,0.3,0,0.3,0c0.3,0,0.3-0.2,0.3-0.3
				c0-0.2-0.2-0.3-0.3-0.3c-0.8,0-1.4,0.1-2.1,0.1c-0.3,0-0.5,0-0.8,0c1.2-1.8,2.8-3.1,5-3.6c2.9-0.8,5.5-0.1,7.9,1.9
				c-0.1,0-0.2,0-0.2,0c-1.1,0.1-1.7,1.1-1.3,2.1c0.2,0.4,0.4,0.8,0.6,1.3c0.3,0.7,0.7,1.3,0.8,2c0.2,0.8-0.1,1.7-0.3,2.5
				c-0.3,1.2-0.8,2.3-1.1,3.5c0,0.1,0,0.1-0.1,0.3c-1.1-3.1-2.1-6.2-3.1-9.3c0.3,0,0.5,0,0.8-0.1c0.2,0,0.3-0.1,0.4-0.2
				s0.1-0.3,0.1-0.3c-0.1-0.1-0.2-0.2-0.3-0.2c-0.5,0-1,0.1-1.5,0.1c-0.8,0-1.7,0-2.5-0.1c-0.2,0-0.3,0-0.6,0
				c-0.2,0-0.3,0.1-0.3,0.3c0,0.1,0.1,0.3,0.3,0.3s0.5,0.1,0.8,0.1c0.1,0,0.2,0.1,0.3,0.2c0.4,1.2,0.8,2.3,1.3,3.4
				c0,0.1,0,0.2,0,0.3C-615.9,402.6-616.5,404.4-617.2,406.3C-617.1,406.3-617.1,406.3-617.2,406.3z"/>
			<path class="st1" d="M-614.8,401.8c0.9,2.4,1.8,4.8,2.7,7.3c-1.2,0.6-4,0.7-5.3,0.2C-616.6,406.8-615.8,404.3-614.8,401.8
				L-614.8,401.8z"/>
			<path class="st1" d="M-618.8,408.8c-4.3-2-6-7.3-4.1-11.3C-621.4,401.3-620.1,404.9-618.8,408.8z"/>
			<path class="st1" d="M-610.7,408.3c0.2-0.4,0.3-0.8,0.4-1.3c0.8-2.3,1.6-4.6,2.3-6.8c0.4-0.9,0.6-2,0.4-3c0-0.1,0-0.1,0-0.2
				c1,1.9,1.3,3.9,0.8,6.1C-607.2,405.3-608.6,407.2-610.7,408.3z"/>
		</g>
	</g>
</g>
</svg>
