<?xml version="1.0" encoding="utf-8"?>
<!-- Generator: Adobe Illustrator 19.1.0, SVG Export Plug-In . SVG Version: 6.00 Build 0)  -->
<!DOCTYPE svg PUBLIC "-//W3C//DTD SVG 1.1//EN" "http://www.w3.org/Graphics/SVG/1.1/DTD/svg11.dtd">
<svg version="1.1" id="Layer_1" xmlns="http://www.w3.org/2000/svg" xmlns:xlink="http://www.w3.org/1999/xlink" x="0px" y="0px"
	 viewBox="0 0 128 128" style="enable-background:new 0 0 128 128;" xml:space="preserve">
<style type="text/css">
	.st0{opacity:0.6;fill:#D1D1D1;}
	.st1{fill:#FFFFFF;stroke:#D3D3D3;stroke-miterlimit:10;}
	.st2{fill:#464442;}
</style>
<path class="st0" d="M120.7,128H14c-4,0-7.3-3.2-7.3-7.3V14c0-4,3.2-7.3,7.3-7.3h106.7c4,0,7.3,3.2,7.3,7.3v106.7
	C128,124.8,124.8,128,120.7,128z"/>
<path class="st1" d="M113.5,121.8H8.7c-4.6,0-8.2-3.7-8.2-8.2V8.8c0-4.6,3.7-8.2,8.2-8.2h104.8c4.6,0,8.2,3.7,8.2,8.2v104.8
	C121.8,118.2,118.1,121.8,113.5,121.8z"/>
<image style="overflow:visible;" width="520" height="67" xlink:href="AB461B07.jpg"  transform="matrix(1 0 0 1 -8128 -8128)">
</image>
<g>
	<path class="st2" d="M108.9,61.4c0.1,26.7-21.9,48.7-48.9,48.4c-25.9-0.2-48-21.2-48-48.6C12,34.5,33.6,12.9,60.5,13
		C87.8,13,109,35.3,108.9,61.4z M14.2,61.4c-0.1,24.9,20,45.9,45.5,46.3c25.8,0.4,46.7-20.3,47-45.6c0.3-26.1-20.7-46.6-45.6-46.9
		C35.2,14.8,14.1,35.9,14.2,61.4z"/>
	<path class="st2" d="M66.2,42c1.6-0.2,3-0.3,4.5-0.4c1.2-0.1,1.9-0.9,1.8-1.9c-0.1-1-0.8-1.6-2.1-1.5c-5.1,0.1-10.1,0.3-15.2,0.4
		c-2.1,0-4.1-0.2-6.2-0.3c-1.4-0.1-2.1,0.5-2.2,1.6c-0.1,1,0.6,1.7,1.9,1.9c1.2,0.1,2.3,0.2,3.5,0.4c0.3,0,0.7,0.3,0.7,0.5
		C54.9,48,57,53.6,59,59.2c0.1,0.3,0.1,0.6,0,0.9c-2.9,8.7-5.8,17.5-8.7,26.2c0,0.1-0.1,0.2-0.2,0.5C45,71.8,40,56.9,35,42
		c1.6-0.2,3.1-0.3,4.5-0.4c1.2-0.1,1.9-0.9,1.8-1.9c-0.1-1-0.8-1.6-2.1-1.5c-4.1,0.1-8.2,0.3-12.3,0.4c-0.3,0-0.6,0-1,0
		c12.9-20.7,43.3-25.4,62.4-7.9c-0.6,0.1-1.2,0.1-1.7,0.2c-4.1,0.9-6.5,5.3-5.2,9.6c0.6,1.8,1.5,3.6,2.5,5.3c1.6,2.7,3.2,5.3,4,8.4
		c1.1,4,0.7,7.9-0.4,11.8c-2,6.7-4,13.4-6,20.1c0,0.1-0.1,0.2-0.2,0.4C76.1,71.5,71.2,56.8,66.2,42z"/>
	<path class="st2" d="M74.1,100.6c-8.4,2.9-16.8,3.1-25.4,0.6c4.1-12,8.2-23.9,12.3-35.9c0.1,0,0.1,0,0.2,0
		C65.5,77.1,69.8,88.8,74.1,100.6z"/>
	<path class="st2" d="M22.5,44.6c6.6,18.1,13.1,36,19.7,54C22.3,89.4,13.3,64.9,22.5,44.6z"/>
	<path class="st2" d="M97,41.9c10,17.6,4.8,43.5-15.6,55.3c0.7-1.9,1.3-3.7,1.9-5.5c3.9-11.3,7.9-22.7,11.8-34
		c1.7-4.9,2.5-10,1.9-15.2C97,42.3,97,42.2,97,41.9z"/>
</g>
</svg>
