<?xml version="1.0" encoding="utf-8"?>
<!-- Generator: Adobe Illustrator 19.1.0, SVG Export Plug-In . SVG Version: 6.00 Build 0)  -->
<!DOCTYPE svg PUBLIC "-//W3C//DTD SVG 1.1//EN" "http://www.w3.org/Graphics/SVG/1.1/DTD/svg11.dtd">
<svg version="1.1" id="Layer_1" xmlns="http://www.w3.org/2000/svg" xmlns:xlink="http://www.w3.org/1999/xlink" x="0px" y="0px"
	 viewBox="11 -11 150 150" style="enable-background:new 11 -11 150 150;" xml:space="preserve">
<style type="text/css">
	.st0{fill:#464442;}
</style>
<g>
	<path class="st0" d="M156.6,63.7c0.1,39-31.9,71-71.3,70.7c-37.8-0.3-70.1-30.9-70-70.9C15.3,24.4,46.8-7.1,86-7
		C125.9-7,156.7,25.6,156.6,63.7z M18.4,63.6c-0.1,36.3,29.2,67,66.4,67.5c37.7,0.6,68.1-29.7,68.6-66.6c0.5-38.1-30.3-68-66.5-68.5
		C49.1-4.4,18.3,26.4,18.4,63.6z"/>
	<path class="st0" d="M94.3,35.3c2.3-0.2,4.4-0.4,6.6-0.7c1.7-0.2,2.7-1.3,2.6-2.8c-0.1-1.5-1.2-2.3-3-2.3
		c-7.4,0.2-14.8,0.4-22.1,0.5c-3,0-6-0.3-9.1-0.5c-2-0.1-3.1,0.7-3.3,2.3c-0.2,1.5,0.8,2.5,2.7,2.7c1.7,0.2,3.4,0.3,5.1,0.5
		c0.4,0.1,1,0.4,1.1,0.8c3,8.2,6,16.3,8.9,24.5c0.1,0.4,0.1,0.9,0,1.3c-4.2,12.7-8.5,25.5-12.7,38.2c0,0.1-0.1,0.3-0.3,0.7
		c-7.4-21.9-14.7-43.6-22-65.4c2.3-0.2,4.5-0.4,6.6-0.7c1.7-0.2,2.7-1.3,2.6-2.8c-0.2-1.5-1.2-2.3-3-2.3c-6,0.2-12,0.4-18,0.7
		c-0.5,0-0.9,0-1.5,0C54.3,0.1,98.7-6.8,126.5,18.7c-0.9,0.1-1.7,0.2-2.5,0.3c-6,1.4-9.5,7.7-7.6,14c0.8,2.7,2.2,5.2,3.6,7.7
		c2.3,3.9,4.7,7.8,5.9,12.2c1.6,5.8,1.1,11.5-0.6,17.2c-2.9,9.8-5.9,19.6-8.8,29.3c0,0.1-0.1,0.2-0.3,0.6
		C108.8,78.4,101.6,56.9,94.3,35.3z"/>
	<path class="st0" d="M105.9,120.9c-12.3,4.2-24.5,4.5-37.1,0.9c6-17.5,12-34.9,18-52.4c0.1,0,0.2,0,0.3,0
		C93.4,86.6,99.6,103.7,105.9,120.9z"/>
	<path class="st0" d="M30.5,39.1c9.6,26.4,19.2,52.6,28.8,78.9C30.3,104.5,17.2,68.8,30.5,39.1z"/>
	<path class="st0" d="M139.3,35.2c14.6,25.7,7.1,63.5-22.8,80.6c1-2.8,1.9-5.4,2.8-8c5.7-16.6,11.5-33.1,17.2-49.7
		c2.5-7.2,3.6-14.6,2.8-22.2C139.3,35.8,139.3,35.6,139.3,35.2z"/>
</g>
</svg>
